<svg width="512" height="512" viewBox="0 0 512 512" fill="none" xmlns="http://www.w3.org/2000/svg">
<path d="M405.333 0H106.667C47.8507 0 0 47.8507 0 106.667V405.333C0 464.149 47.8507 512 106.667 512H330.987C334.464 512 337.899 511.723 341.333 511.488V405.333C341.333 370.048 370.048 341.333 405.333 341.333H511.488C511.723 337.899 512 334.464 512 330.987V106.667C512 47.8507 464.149 0 405.333 0ZM341.333 277.333H277.333V341.333C277.333 353.131 267.776 362.667 256 362.667C244.224 362.667 234.667 353.131 234.667 341.333V277.333H170.667C158.891 277.333 149.333 267.797 149.333 256C149.333 244.203 158.891 234.667 170.667 234.667H234.667V170.667C234.667 158.869 244.224 149.333 256 149.333C267.776 149.333 277.333 158.869 277.333 170.667V234.667H341.333C353.109 234.667 362.667 244.203 362.667 256C362.667 267.797 353.109 277.333 341.333 277.333ZM405.333 384H502.187C494.784 403.477 483.413 421.419 468.245 436.587L436.587 468.267C421.397 483.435 403.477 494.805 384 502.208V405.355C384 393.6 393.557 384 405.333 384Z" fill="white"/>
</svg>
