<svg width="48" height="48" viewBox="0 0 48 48" fill="none" xmlns="http://www.w3.org/2000/svg">
<path fill-rule="evenodd" clip-rule="evenodd" d="M14.2221 28.1251C15.5721 28.1251 16.6666 27.0307 16.6666 25.6806C16.6666 24.3307 15.5721 23.2362 14.2221 23.2362C12.8721 23.2362 11.7777 24.3307 11.7777 25.6806C11.7777 27.0307 12.8721 28.1251 14.2221 28.1251ZM14.2221 37.9024C15.5721 37.9024 16.6666 36.808 16.6666 35.4579C16.6666 34.108 15.5721 33.0137 14.2221 33.0137C12.8721 33.0137 11.7777 34.108 11.7777 35.4579C11.7777 36.808 12.8721 37.9024 14.2221 37.9024ZM36.2221 25.6806C36.2221 27.0307 35.1277 28.1251 33.7779 28.1251C32.4277 28.1251 31.3333 27.0307 31.3333 25.6806C31.3333 24.3307 32.4277 23.2362 33.7779 23.2362C35.1277 23.2362 36.2221 24.3307 36.2221 25.6806ZM33.7779 37.9024C35.1277 37.9024 36.2221 36.808 36.2221 35.4579C36.2221 34.108 35.1277 33.0137 33.7779 33.0137C32.4277 33.0137 31.3333 34.108 31.3333 35.4579C31.3333 36.808 32.4277 37.9024 33.7779 37.9024ZM26.4445 25.6806C26.4445 27.0307 25.3501 28.1251 24 28.1251C22.6501 28.1251 21.5557 27.0307 21.5557 25.6806C21.5557 24.3307 22.6501 23.2362 24 23.2362C25.3501 23.2362 26.4445 24.3307 26.4445 25.6806ZM24 37.9024C25.3501 37.9024 26.4445 36.808 26.4445 35.4579C26.4445 34.108 25.3501 33.0137 24 33.0137C22.6501 33.0137 21.5557 34.108 21.5557 35.4579C21.5557 36.808 22.6501 37.9024 24 37.9024ZM14.2223 0C15.3269 0 16.2223 0.89544 16.2223 2V2.50157C18.0862 2.44463 20.2188 2.44463 22.6687 2.44466H25.3312C27.7813 2.44463 29.9139 2.44463 31.7776 2.50157V2C31.7776 0.89544 32.6731 0 33.7776 0C34.8821 0 35.7776 0.89544 35.7776 2V2.77866C38.0272 3.06202 39.9248 3.6026 41.6077 4.69217C43.2664 5.7658 44.6789 7.17827 45.7525 8.83677C46.96 10.7023 47.4933 12.8311 47.7493 15.4107C48 17.9354 48 21.0981 48 25.1134V25.3313C48 29.3465 48 32.5094 47.7493 35.0339C47.4933 37.6136 46.96 39.7424 45.7525 41.608C44.6789 43.2664 43.2664 44.6789 41.6077 45.7525C39.7424 46.9603 37.6136 47.4933 35.0339 47.7493C32.5093 48 29.3467 48 25.3315 48H22.6686C18.6534 48 15.4908 48 12.9661 47.7493C10.3865 47.4933 8.25768 46.9603 6.39213 45.7525C4.73363 44.6789 3.32115 43.2664 2.24755 41.608C1.03989 39.7424 0.506667 37.6136 0.250587 35.0339C-3.45111e-05 32.5094 -1.8345e-05 29.3467 3.21629e-07 25.3313V25.1134C-1.8345e-05 21.0981 -3.45111e-05 17.9354 0.250587 15.4107C0.506667 12.8311 1.03989 10.7023 2.24755 8.83677C3.32115 7.17827 4.73363 5.7658 6.39213 4.69217C8.07531 3.6026 9.97283 3.06202 12.2223 2.77866V2C12.2223 0.89544 13.1178 0 14.2223 0ZM31.7776 6.50323V6.88886C31.7776 7.99344 32.6731 8.88885 33.7776 8.88885C34.8821 8.88885 35.7776 7.99344 35.7776 6.88886V6.81665C37.4061 7.06411 38.5221 7.45966 39.4341 8.05003C40.6189 8.81688 41.6277 9.82581 42.3947 11.0104C42.9445 11.8601 43.3256 12.8868 43.5752 14.3401C42.7784 14.2533 41.8085 14.1578 40.6661 14.0626C36.9443 13.7525 31.3891 13.4446 24 13.4446C16.611 13.4446 11.0556 13.7525 7.33389 14.0626C6.19136 14.1578 5.22168 14.2533 4.42485 14.3401C4.67445 12.8868 5.05539 11.8601 5.60539 11.0104C6.37224 9.82581 7.38117 8.81688 8.56581 8.05003C9.47779 7.45966 10.5939 7.06411 12.2223 6.81665V6.88886C12.2223 7.99344 13.1178 8.88885 14.2223 8.88885C15.3269 8.88885 16.2223 7.99344 16.2223 6.88886V6.50323C18.0256 6.44555 20.1673 6.44465 22.7778 6.44465H25.2221C27.8328 6.44465 29.9744 6.44555 31.7776 6.50323ZM43.9325 18.4063C43.0608 18.303 41.8611 18.1761 40.3339 18.0488C36.7224 17.7478 31.2776 17.4446 24 17.4446C16.7223 17.4446 11.2777 17.7478 7.66608 18.0488C6.13883 18.1761 4.93925 18.303 4.06741 18.4063C4.00101 20.2631 4 22.485 4 25.2225C4 29.3705 4.00229 32.3347 4.23101 34.639C4.45656 36.911 4.88656 38.3238 5.60539 39.4342C6.37224 40.619 7.38117 41.6278 8.56581 42.3947C9.67621 43.1136 11.0892 43.5435 13.3612 43.7691C15.6653 43.9979 18.6296 44 22.7778 44H25.2221C29.3704 44 32.3347 43.9979 34.6387 43.7691C36.9109 43.5435 38.3237 43.1136 39.4341 42.3947C40.6189 41.6278 41.6277 40.619 42.3947 39.4342C43.1133 38.3238 43.5435 36.911 43.7691 34.639C43.9976 32.3347 44 29.3705 44 25.2225C44 22.485 43.9989 20.2631 43.9325 18.4063Z" fill="#B5B3B5"/>
</svg>
