<svg width="512" height="512" viewBox="0 0 512 512" fill="none" xmlns="http://www.w3.org/2000/svg">
<path d="M384 405.333V505.6C399.057 500.438 412.758 491.95 424.085 480.768L480.747 424.064C491.942 412.751 500.438 399.056 505.6 384H405.333C399.675 384 394.249 386.248 390.248 390.248C386.248 394.249 384 399.675 384 405.333Z" fill="white"/>
<path d="M153.003 294.997C145.076 302.922 138.788 312.331 134.497 322.686C130.207 333.041 128 344.141 128 355.349V384H156.651C167.859 384 178.959 381.793 189.314 377.503C199.669 373.213 209.078 366.924 217.003 358.997L458.667 117.333C467.154 108.846 471.922 97.3357 471.922 85.3333C471.922 73.331 467.154 61.8203 458.667 53.3333C450.18 44.8464 438.669 40.0785 426.667 40.0785C414.664 40.0785 403.154 44.8464 394.667 53.3333L153.003 294.997Z" fill="white"/>
<path d="M512 105.643C508.367 121.468 500.388 135.964 488.96 147.499L247.168 389.184C235.308 401.106 221.201 410.558 205.664 416.992C190.127 423.426 173.467 426.714 156.651 426.667H128C116.684 426.667 105.832 422.171 97.8301 414.17C89.8286 406.168 85.3333 395.316 85.3333 384V355.349C85.2866 338.534 88.5775 321.877 95.0153 306.342C101.453 290.808 110.91 276.706 122.837 264.853L364.501 23.168C375.95 11.7235 390.364 3.70004 406.123 0C405.845 0 405.611 0 405.333 0H106.667C78.3873 0.0338743 51.2759 11.2828 31.2794 31.2794C11.2828 51.2759 0.0338743 78.3873 0 106.667V405.333C0.0338743 433.613 11.2828 460.724 31.2794 480.721C51.2759 500.717 78.3873 511.966 106.667 512H341.333V405.333C341.333 388.359 348.076 372.081 360.078 360.078C372.081 348.076 388.359 341.333 405.333 341.333H512V106.667C512 106.325 512 106.005 512 105.643Z" fill="white"/>
</svg>
