<svg width="175" height="175" viewBox="0 0 175 175" fill="none" xmlns="http://www.w3.org/2000/svg">
<g clip-path="url(#clip0_8_60)">
<path d="M171.76 97.81C170.35 97.81 169.21 96.67 169.21 95.26V78.89C169.21 77.48 170.35 76.34 171.76 76.34C173.17 76.34 174.31 77.48 174.31 78.89V95.26C174.31 96.67 173.17 97.81 171.76 97.81Z" fill="#09091E"/>
<path d="M161.2 114.45C159.79 114.45 158.65 113.31 158.65 111.9V62.25C158.65 60.84 159.79 59.7 161.2 59.7C162.61 59.7 163.75 60.84 163.75 62.25V111.9C163.75 113.31 162.61 114.45 161.2 114.45Z" fill="#09091E"/>
<path d="M150.63 108.89C149.22 108.89 148.08 107.75 148.08 106.34V67.8C148.08 66.39 149.22 65.25 150.63 65.25C152.04 65.25 153.18 66.39 153.18 67.8V106.34C153.18 107.75 152.04 108.89 150.63 108.89Z" fill="#09091E"/>
<path d="M140.07 126.02C138.66 126.02 137.52 124.88 137.52 123.47V50.68C137.52 49.27 138.66 48.13 140.07 48.13C141.48 48.13 142.62 49.27 142.62 50.68V123.47C142.62 124.88 141.48 126.02 140.07 126.02Z" fill="#09091E"/>
<path d="M129.5 136.34C128.09 136.34 126.95 135.2 126.95 133.79V40.35C126.95 38.94 128.09 37.8 129.5 37.8C130.91 37.8 132.05 38.94 132.05 40.35V133.79C132.05 135.2 130.91 136.34 129.5 136.34Z" fill="#09091E"/>
<path d="M118.94 158.67C117.53 158.67 116.39 157.53 116.39 156.12V18.03C116.39 16.62 117.53 15.48 118.94 15.48C120.35 15.48 121.49 16.62 121.49 18.03V156.12C121.49 157.53 120.35 158.67 118.94 158.67Z" fill="#09091E"/>
<path d="M108.37 151.69C106.96 151.69 105.82 150.55 105.82 149.14V25C105.82 23.59 106.96 22.45 108.37 22.45C109.78 22.45 110.92 23.59 110.92 25V149.14C110.92 150.55 109.78 151.69 108.37 151.69Z" fill="#09091E"/>
<path d="M97.81 166.15C96.4 166.15 95.26 165.01 95.26 163.6V10.54C95.26 9.12999 96.4 7.98999 97.81 7.98999C99.22 7.98999 100.36 9.12999 100.36 10.54V163.59C100.36 165 99.22 166.14 97.81 166.14V166.15Z" fill="#09091E"/>
<path d="M2.55 97.81C1.14 97.81 0 96.67 0 95.26V78.89C0 77.48 1.14 76.34 2.55 76.34C3.96 76.34 5.1 77.48 5.1 78.89V95.26C5.1 96.67 3.96 97.81 2.55 97.81Z" fill="#09091E"/>
<path d="M13.12 114.45C11.71 114.45 10.57 113.31 10.57 111.9V62.25C10.57 60.84 11.71 59.7 13.12 59.7C14.53 59.7 15.67 60.84 15.67 62.25V111.9C15.67 113.31 14.53 114.45 13.12 114.45Z" fill="#09091E"/>
<path d="M23.68 108.89C22.27 108.89 21.13 107.75 21.13 106.34V67.8C21.13 66.39 22.27 65.25 23.68 65.25C25.09 65.25 26.23 66.39 26.23 67.8V106.34C26.23 107.75 25.09 108.89 23.68 108.89Z" fill="#09091E"/>
<path d="M34.25 126.02C32.84 126.02 31.7 124.88 31.7 123.47V50.68C31.7 49.27 32.84 48.13 34.25 48.13C35.66 48.13 36.8 49.27 36.8 50.68V123.47C36.8 124.88 35.66 126.02 34.25 126.02Z" fill="#09091E"/>
<path d="M44.81 136.34C43.4 136.34 42.26 135.2 42.26 133.79V40.35C42.26 38.94 43.4 37.8 44.81 37.8C46.22 37.8 47.36 38.94 47.36 40.35V133.79C47.36 135.2 46.22 136.34 44.81 136.34Z" fill="#09091E"/>
<path d="M55.38 158.67C53.97 158.67 52.83 157.53 52.83 156.12V18.03C52.83 16.62 53.97 15.48 55.38 15.48C56.79 15.48 57.93 16.62 57.93 18.03V156.12C57.93 157.53 56.79 158.67 55.38 158.67Z" fill="#09091E"/>
<path d="M65.94 151.69C64.53 151.69 63.39 150.55 63.39 149.14V25C63.39 23.59 64.53 22.45 65.94 22.45C67.35 22.45 68.49 23.59 68.49 25V149.14C68.49 150.55 67.35 151.69 65.94 151.69Z" fill="#09091E"/>
<path d="M76.51 166.15C75.1 166.15 73.96 165.01 73.96 163.6V10.54C73.96 9.12999 75.1 7.98999 76.51 7.98999C77.92 7.98999 79.06 9.12999 79.06 10.54V163.59C79.06 165 77.92 166.14 76.51 166.14V166.15Z" fill="#09091E"/>
<path d="M87.07 174.14C85.66 174.14 84.52 173 84.52 171.59V2.55C84.52 1.14 85.66 0 87.07 0C88.48 0 89.62 1.14 89.62 2.55V171.59C89.62 173 88.48 174.14 87.07 174.14Z" fill="#09091E"/>
<path d="M87.8564 132.991C113.221 132.655 133.51 111.82 133.173 86.456C132.837 61.0918 112.002 40.8028 86.638 41.1392C61.2738 41.4757 40.9848 62.3102 41.3213 87.6744C41.6577 113.039 62.4922 133.328 87.8564 132.991Z" fill="#09091E"/>
<path d="M79.819 105.335C80.5352 100.908 77.5271 96.7383 73.1001 96.0221C68.6731 95.3058 64.5037 98.314 63.7875 102.741C63.0712 107.168 66.0794 111.337 70.5064 112.054C74.9334 112.77 79.1028 109.762 79.819 105.335Z" fill="white"/>
<path d="M107.113 96.0891C108.119 91.7189 105.392 87.3603 101.022 86.3538C96.6521 85.3473 92.2934 88.074 91.2869 92.4442C90.2804 96.8143 93.0071 101.173 97.3773 102.179C101.747 103.186 106.106 100.459 107.113 96.0891Z" fill="white"/>
<path d="M107.31 61.2C107.13 59.59 105.44 58.54 103.92 59.09L76.53 68.87C75.52 69.23 74.84 70.21 74.84 71.27V104.04C74.84 105.45 75.98 106.59 77.39 106.59C78.8 106.59 79.94 105.45 79.94 104.04V81.87L102.23 73.91V94.26C102.23 95.67 103.37 96.81 104.78 96.81C106.19 96.81 107.33 95.67 107.33 94.26V61.49C107.33 61.39 107.33 61.3 107.31 61.2ZM79.94 76.46V73.07L102.23 65.11V68.5L79.94 76.46Z" fill="white"/>
<path d="M104.59 69.7L77.21 79.68V70.79L104.59 60.81V69.7Z" fill="white"/>
</g>
<defs>
<clipPath id="clip0_8_60">
<rect width="174.31" height="174.14" fill="white"/>
</clipPath>
</defs>
</svg>
