<?xml version="1.0" encoding="UTF-8"?>
<svg xmlns="http://www.w3.org/2000/svg" viewBox="0 0 601.55 440.97">
  <defs>
    <style>
      .cls-1 {
        fill: #fff;
      }

      .cls-2 {
        opacity: .5;
      }

      .cls-3 {
        fill: #f5f5f5;
      }

      .cls-4 {
        opacity: .2;
      }

      .cls-5 {
        fill: #e0e0e0;
      }

      .cls-6 {
        fill: #e8505b;
      }

      .cls-7 {
        fill: #263238;
      }
    </style>
  </defs>
  <g id="Background_Complete" data-name="Background Complete">
    <g>
      <rect class="cls-3" x="65.2" y="143.03" width="134.99" height="198.77" transform="translate(-112.37 114.69) rotate(-33.78)"/>
      <g>
        <polygon class="cls-5" points="186.09 279.66 184.81 287.54 129.03 279.5 130.31 271.62 186.09 279.66"/>
        <polygon class="cls-5" points="158 251.55 166 252.7 157.13 307.62 149.12 306.46 158 251.55"/>
      </g>
      <path class="cls-5" d="m106.62,181.75c.08.12-11.16,7.78-25.11,17.11-13.95,9.33-25.32,16.8-25.4,16.68-.08-.12,11.16-7.78,25.11-17.11,13.95-9.33,25.32-16.8,25.4-16.68Z"/>
      <path class="cls-5" d="m147.88,171.39c.08.12-18.62,12.77-41.76,28.24-23.15,15.48-41.97,27.93-42.05,27.81-.08-.12,18.61-12.76,41.76-28.25,23.14-15.48,41.97-27.93,42.05-27.81Z"/>
      <path class="cls-5" d="m156.15,183.75c.08.12-18.62,12.77-41.76,28.24-23.15,15.48-41.97,27.93-42.05,27.81-.08-.12,18.61-12.76,41.76-28.25,23.14-15.48,41.97-27.93,42.05-27.81Z"/>
      <path class="cls-5" d="m164.42,196.12c.08.12-18.62,12.77-41.76,28.24-23.15,15.48-41.97,27.93-42.05,27.81-.08-.12,18.61-12.76,41.76-28.25,23.14-15.48,41.97-27.93,42.05-27.81Z"/>
      <path class="cls-5" d="m172.7,208.49c.08.12-18.62,12.77-41.76,28.24-23.15,15.48-41.97,27.93-42.05,27.81-.08-.12,18.61-12.76,41.76-28.25,23.14-15.48,41.97-27.93,42.05-27.81Z"/>
    </g>
    <g>
      <rect class="cls-3" x="451.34" y="250.43" width="113.37" height="166.93" transform="translate(-99.88 338.8) rotate(-33.78)"/>
      <g>
        <polygon class="cls-5" points="552.87 365.18 551.8 371.8 504.95 365.05 506.02 358.43 552.87 365.18"/>
        <polygon class="cls-5" points="529.27 341.57 536 342.54 528.54 388.66 521.82 387.69 529.27 341.57"/>
      </g>
      <path class="cls-5" d="m486.13,282.95c.08.12-9.35,6.57-21.07,14.4-11.72,7.84-21.28,14.09-21.36,13.97-.08-.12,9.35-6.57,21.07-14.41,11.71-7.83,21.28-14.09,21.36-13.97Z"/>
      <path class="cls-5" d="m520.78,274.25c.08.12-15.61,10.76-35.05,23.76-19.44,13-35.26,23.44-35.34,23.32-.08-.12,15.61-10.75,35.05-23.76,19.43-13,35.26-23.44,35.34-23.32Z"/>
      <path class="cls-5" d="m527.73,284.63c.08.12-15.61,10.76-35.05,23.76-19.44,13-35.26,23.44-35.34,23.32-.08-.12,15.61-10.75,35.05-23.76,19.43-13,35.26-23.44,35.34-23.32Z"/>
      <path class="cls-5" d="m534.67,295.02c.08.12-15.61,10.76-35.05,23.75-19.44,13-35.26,23.44-35.34,23.32-.08-.12,15.61-10.75,35.05-23.76,19.43-13,35.26-23.44,35.34-23.32Z"/>
      <path class="cls-5" d="m541.62,305.41c.08.12-15.61,10.76-35.05,23.76-19.44,13-35.26,23.44-35.34,23.32-.08-.12,15.61-10.75,35.05-23.76,19.43-13,35.26-23.44,35.34-23.32Z"/>
    </g>
    <g>
      <rect class="cls-3" x="209.47" y="90.69" width="116.6" height="171.69" transform="translate(114.9 -105.42) rotate(28.14)"/>
      <g>
        <polygon class="cls-5" points="261.09 232.37 254.57 234.6 238.01 188.83 244.53 186.59 261.09 232.37"/>
        <polygon class="cls-5" points="271.09 199.53 273.47 206.1 228.01 221.67 225.63 215.1 271.09 199.53"/>
      </g>
      <path class="cls-5" d="m303.39,131.99c-.08.15-10.51-5.27-23.29-12.11-12.79-6.84-23.08-12.5-23-12.65.08-.15,10.51,5.27,23.29,12.11,12.78,6.84,23.08,12.5,23,12.65Z"/>
      <path class="cls-5" d="m328.06,159.23c-.08.15-17.34-8.92-38.54-20.26-21.21-11.34-38.34-20.66-38.26-20.81.08-.15,17.34,8.92,38.55,20.27,21.2,11.34,38.33,20.66,38.25,20.81Z"/>
      <path class="cls-5" d="m322,170.56c-.08.15-17.34-8.92-38.54-20.26-21.21-11.34-38.34-20.66-38.26-20.81.08-.15,17.34,8.92,38.55,20.27,21.2,11.34,38.33,20.66,38.25,20.81Z"/>
      <path class="cls-5" d="m315.94,181.89c-.08.15-17.34-8.92-38.54-20.26-21.21-11.34-38.34-20.66-38.26-20.81.08-.15,17.34,8.92,38.55,20.27,21.2,11.34,38.33,20.66,38.25,20.81Z"/>
      <path class="cls-5" d="m309.88,193.22c-.08.15-17.34-8.92-38.54-20.26-21.21-11.34-38.34-20.66-38.26-20.81.08-.15,17.34,8.92,38.55,20.27,21.2,11.34,38.33,20.66,38.25,20.81Z"/>
    </g>
    <rect class="cls-4" x="307.84" width="2.58" height="43.98"/>
  </g>
  <g id="Lamp">
    <g>
      <path class="cls-6" d="m248.9,97.19h120.46s-11.12-53.23-61.14-53.23c-44.49,0-59.32,53.23-59.32,53.23Z"/>
      <rect class="cls-6" x="307.84" width="2.58" height="43.98"/>
    </g>
  </g>
  <g id="Floor">
    <path class="cls-7" d="m577.33,439.83c0,.14-129.25.26-288.65.26s-288.68-.12-288.68-.26,129.22-.26,288.68-.26,288.65.12,288.65.26Z"/>
  </g>
  <g id="Plant">
    <g>
      <path class="cls-6" d="m31.95,377.2c3.38.12,6.55,1.95,8.78,4.5,2.23,2.54,3.6,5.74,4.47,9.01,1.69,6.32.65,13.79-1.15,20.08-6.85-2.45-11.07-9.75-12.98-13.59-3.02-6.07-4.79-18.86.87-20"/>
      <path class="cls-6" d="m53.91,418.45c-2.16-3.1-2.21-7.41-.5-10.79,1.71-3.37,4.99-5.8,8.6-6.91,1.67-.51,3.61-.73,5.06.24,1.36.91,1.95,2.69,1.77,4.31-.18,1.62-1,3.11-1.97,4.42-3.33,4.51-7.38,8.26-12.96,8.72"/>
      <path class="cls-7" d="m54.66,439.58s-.14-.46-.31-1.31c-.18-.94-.42-2.15-.7-3.6-.54-3.03-1.4-7.34-.75-12.1.62-4.74,2.51-8.8,4.49-11.22.97-1.22,1.91-2.09,2.6-2.62.33-.28.63-.45.81-.59.19-.13.3-.19.31-.17.07.08-1.6,1.12-3.45,3.59-1.87,2.43-3.67,6.41-4.29,11.08-.64,4.67.15,8.94.61,11.98.24,1.53.44,2.77.56,3.63.11.86.16,1.34.12,1.34Z"/>
      <path class="cls-7" d="m34.16,386.83s.11.17.28.52c.18.39.42.9.71,1.52.6,1.33,1.46,3.26,2.49,5.65,2.06,4.79,4.82,11.45,7.7,18.86,2.88,7.42,5.33,14.2,7.03,19.12.85,2.46,1.53,4.46,1.98,5.85.21.66.38,1.19.51,1.6.11.37.16.56.15.57s-.1-.18-.24-.54c-.15-.41-.35-.93-.59-1.57-.52-1.42-1.24-3.39-2.12-5.8-1.79-4.9-4.29-11.65-7.16-19.07-2.88-7.41-5.58-14.08-7.56-18.9-.97-2.37-1.77-4.31-2.35-5.71-.26-.64-.46-1.16-.62-1.56-.14-.36-.2-.55-.19-.56Z"/>
      <path class="cls-6" d="m46.54,425.6c-4.04-6.87-11.57-11.55-19.52-12.13-2.02-.15-4.46.19-5.36,2.01-.9,1.82.3,3.97,1.68,5.47,5.74,6.21,15.44,8.38,23.27,5.2"/>
      <path class="cls-7" d="m30.1,418.89s.45-.01,1.27.05c.41.03.91.06,1.48.17.57.11,1.23.17,1.94.36.71.17,1.5.35,2.31.64.83.24,1.68.6,2.57.98,1.76.8,3.64,1.85,5.42,3.21,1.77,1.38,3.26,2.92,4.48,4.43.58.77,1.14,1.51,1.58,2.26.48.72.84,1.44,1.17,2.09.36.64.57,1.27.81,1.8.24.53.38,1.01.5,1.4.24.78.36,1.21.33,1.22-.1.04-.59-1.71-1.94-4.27-.35-.63-.72-1.33-1.21-2.03-.44-.73-1-1.44-1.59-2.19-1.21-1.47-2.69-2.97-4.43-4.33-1.75-1.34-3.58-2.38-5.31-3.19-.87-.38-1.71-.75-2.52-1-.79-.3-1.56-.49-2.26-.69-2.81-.71-4.62-.81-4.61-.91Z"/>
    </g>
  </g>
  <g id="Folder">
    <g>
      <path class="cls-6" d="m212.62,234.54l-35.36,181.8-4.63,23.8,236.06-1.16c10.59-.05,19.98-9.46,23.39-23.43l41.86-171.64c2.59-10.61-3.09-21.64-11.13-21.64l-238.92.25c-5.28,0-9.89,4.93-11.27,12.02Z"/>
      <g class="cls-2">
        <path d="m212.62,234.54l-35.36,181.8-4.63,23.8,236.06-1.16c10.59-.05,19.98-9.46,23.39-23.43l41.86-171.64c2.59-10.61-3.09-21.64-11.13-21.64l-238.92.25c-5.28,0-9.89,4.93-11.27,12.02Z"/>
      </g>
      <path class="cls-6" d="m386.05,404.03l-24.99-201.41c-1.02-8.25-7.6-14.41-15.36-14.38l-54.81.18c-4.06.01-7.95,1.74-10.83,4.8l-26.02,27.66-152.43.8c-9.31.05-16.47,8.86-15.24,18.77l23.21,186.15c1.03,8.24,7.59,14.39,15.34,14.37l265.65-.52c29.59.61,32.41-8.12,32.41-8.12-33.91,7.51-36.93-28.27-36.93-28.29Z"/>
      <g class="cls-2">
        <polygon class="cls-1" points="271.51 363.72 262.55 373.34 193.55 311.26 202.51 301.64 271.51 363.72"/>
        <polygon class="cls-1" points="258.79 299.51 268.7 308.42 206.26 375.47 196.36 366.57 258.79 299.51"/>
      </g>
    </g>
  </g>
  <g id="Speech_Bubble" data-name="Speech Bubble">
    <g>
      <g>
        <path class="cls-6" d="m423.99,103.78c-.64-.27-1.1-.9-1.13-1.64l-.4-9.28c-.03-.58.22-1.15.67-1.52.45-.37,1.05-.51,1.62-.38,1.49.35,3.14.03,4.51-.89,1.27-.85,2.12-2.09,2.33-3.42.22-1.32-.19-2.79-1.12-4.02-1-1.32-2.47-2.2-3.94-2.37-3.01-.35-6.26,1.96-7.1,5.04-.27.99-1.29,1.58-2.29,1.31-1.01-.28-1.58-1.3-1.31-2.29,1.31-4.84,6.31-8.32,11.13-7.77,2.5.29,4.87,1.68,6.49,3.83,1.54,2.04,2.21,4.54,1.83,6.87-.38,2.34-1.82,4.5-3.95,5.92-1.54,1.03-3.3,1.59-5.06,1.65l.31,7.16c.04,1.03-.75,1.9-1.78,1.94-.29.01-.56-.04-.81-.15Z"/>
        <path class="cls-6" d="m426.72,107.58c.06.84-.58,1.57-1.42,1.63-.84.06-1.57-.58-1.63-1.42-.06-.84.58-1.57,1.42-1.63s1.57.58,1.63,1.42Z"/>
      </g>
      <path class="cls-7" d="m391.85,90.69s.04-.21.09-.61c.05-.43.11-1.03.2-1.79.04-.79.25-1.75.48-2.87.13-.56.2-1.18.41-1.81.2-.63.4-1.31.62-2.02.97-2.81,2.46-6.18,4.97-9.53,2.49-3.34,6-6.65,10.5-9.15,2.22-1.32,4.75-2.24,7.41-3.06,2.7-.64,5.56-1.19,8.55-1.12,1.49-.08,3,.14,4.54.27.77.07,1.52.28,2.29.41.77.14,1.55.29,2.3.56,3.09.79,6.09,2.25,8.94,4.05,5.74,3.61,10.57,9.48,13.22,16.6,1.33,3.56,1.96,7.46,1.96,11.41.08,3.95-.69,7.96-2.09,11.74l-.45,1.14-.06.15.06.14c2.51,5.78,4.97,11.44,7.35,16.93l.42-.48c-5.16-1.98-10.17-3.91-14.98-5.75l-.19-.07-.15.14c-4.16,4.03-9.12,6.75-14.14,8.16-5.04,1.42-10.12,1.49-14.73.67-4.63-.82-8.79-2.59-12.27-4.86-3.48-2.27-6.28-5.04-8.43-7.85-2.14-2.84-3.55-5.76-4.61-8.36-.94-2.66-1.51-5.02-1.79-6.98-.12-.98-.22-1.84-.31-2.6-.02-.75-.04-1.38-.05-1.91-.02-.49-.03-.88-.04-1.17-.01-.26-.02-.4-.03-.4,0,0-.02.13-.02.4,0,.29,0,.68-.02,1.17,0,.53,0,1.17,0,1.92.08.76.16,1.64.26,2.62.25,1.97.79,4.36,1.71,7.06,1.04,2.64,2.44,5.6,4.58,8.5,2.16,2.86,4.97,5.69,8.49,8.02,3.51,2.33,7.73,4.15,12.43,5,4.69.85,9.85.8,14.98-.63,5.12-1.43,10.18-4.18,14.43-8.28l-.33.07c4.8,1.85,9.81,3.78,14.97,5.78l.75.29-.33-.77c-2.38-5.49-4.84-11.16-7.34-16.94v.29s.46-1.17.46-1.17c1.44-3.86,2.22-7.97,2.14-12,0-4.03-.65-8.02-2.01-11.66-2.71-7.27-7.66-13.25-13.51-16.91-2.92-1.83-5.97-3.3-9.12-4.1-.77-.26-1.56-.41-2.34-.56-.78-.13-1.55-.34-2.33-.41-1.56-.13-3.09-.34-4.61-.25-3.04-.06-5.94.51-8.68,1.17-2.7.84-5.26,1.79-7.5,3.14-4.55,2.57-8.08,5.94-10.58,9.35-2.51,3.41-3.99,6.84-4.92,9.68-.21.72-.41,1.4-.6,2.05-.2.64-.26,1.27-.38,1.83-.22,1.14-.4,2.1-.42,2.9-.06.77-.1,1.36-.13,1.8-.03.4-.03.61-.02.61Z"/>
    </g>
  </g>
</svg>