<svg width="32" height="32" viewBox="0 0 32 32" fill="none" xmlns="http://www.w3.org/2000/svg">
<path d="M16 32C13.8667 32 11.7333 31.6 9.8 30.7333C7.86667 29.9333 6.13333 28.8 4.66667 27.3333C3.2 25.8667 2.06667 24.1333 1.26667 22.2667C0.4 20.2667 0 18.1333 0 16C0 13.8667 0.4 11.7333 1.26667 9.8C2.06667 7.86667 3.2 6.13333 4.66667 4.66667C6.13333 3.2 7.86667 2.06667 9.73333 1.26667C11.7333 0.4 13.8667 0 16 0C18.1333 0 20.2667 0.4 22.2 1.26667C24.1333 2.06667 25.8667 3.2 27.3333 4.66667C28.8 6.13333 29.9333 7.86667 30.7333 9.73333C31.6 11.7333 32 13.8 32 15.9333C32 18.0667 31.6 20.2 30.7333 22.1333C29.9333 24.0667 28.8 25.7333 27.3333 27.2C25.8667 28.6667 24.1333 29.8 22.2667 30.6C20.2667 31.6 18.1333 32 16 32ZM16 1.2C14 1.2 12.0667 1.6 10.2667 2.33333C8.53333 3.06667 6.93333 4.13333 5.6 5.53333C4.26667 6.93333 3.2 8.46667 2.4 10.2C1.6 12.0667 1.2 14 1.2 16C1.2 18 1.6 19.9333 2.33333 21.7333C3.06667 23.4667 4.13333 25.0667 5.53333 26.4C6.93333 27.7333 8.46667 28.8 10.2 29.6C12 30.4 13.9333 30.7333 15.9333 30.7333C17.9333 30.7333 19.8667 30.3333 21.6667 29.6C23.4 28.8667 25 27.8 26.3333 26.4C27.6667 25 28.7333 23.4667 29.5333 21.7333C30.3333 19.9333 30.6667 18 30.6667 16C30.6667 14 30.2667 12.0667 29.5333 10.2667C28.8 8.53333 27.7333 6.93333 26.3333 5.6C24.9333 4.26667 23.4 3.2 21.6667 2.4C19.9333 1.6 18 1.2 16 1.2Z" fill="white"/>
<path d="M22.8667 17.4L13.0667 24.4667C11.9333 25.2667 10.3333 24.4667 10.3333 23.0667V8.93333C10.3333 7.53333 11.9333 6.73333 13.0667 7.53333L22.8667 14.6C23.8 15.2667 23.8 16.7333 22.8667 17.4Z" fill="white"/>
</svg>
