<svg width="48" height="48" viewBox="0 0 48 48" fill="none" xmlns="http://www.w3.org/2000/svg">
<path d="M31 27H26.62C25.8602 27.6688 24.8741 28.0231 23.8624 27.9909C22.8506 27.9587 21.8891 27.5424 21.1734 26.8266C20.4576 26.1109 20.0413 25.1494 20.0091 24.1376C19.9769 23.1259 20.3312 22.1398 21 21.38V14C21 13.2044 21.3161 12.4413 21.8787 11.8787C22.4413 11.3161 23.2044 11 24 11C24.7957 11 25.5587 11.3161 26.1213 11.8787C26.6839 12.4413 27 13.2044 27 14V21H31C31.7957 21 32.5587 21.3161 33.1213 21.8787C33.6839 22.4413 34 23.2044 34 24C34 24.7956 33.6839 25.5587 33.1213 26.1213C32.5587 26.6839 31.7957 27 31 27ZM24 0C23.2044 0 22.4413 0.31607 21.8787 0.87868C21.3161 1.44129 21 2.20435 21 3C21 3.79565 21.3161 4.55871 21.8787 5.12132C22.4413 5.68393 23.2044 6 24 6C28.7723 6.00529 33.3476 7.90342 36.7221 11.2779C40.0966 14.6524 41.9947 19.2277 42 24C42 24.7956 42.3161 25.5587 42.8787 26.1213C43.4413 26.6839 44.2044 27 45 27C45.7956 27 46.5587 26.6839 47.1213 26.1213C47.6839 25.5587 48 24.7956 48 24C47.9931 17.6369 45.4623 11.5364 40.963 7.03704C36.4636 2.53766 30.3631 0.00688216 24 0ZM6 25C6 24.4067 5.82405 23.8266 5.49441 23.3333C5.16477 22.8399 4.69623 22.4554 4.14805 22.2284C3.59987 22.0013 2.99667 21.9419 2.41473 22.0576C1.83279 22.1734 1.29824 22.4591 0.878681 22.8787C0.459123 23.2982 0.173401 23.8328 0.0576455 24.4147C-0.0581102 24.9967 0.00129986 25.5999 0.228363 26.1481C0.455426 26.6962 0.839943 27.1648 1.33329 27.4944C1.82664 27.8241 2.40666 28 3 28C3.79565 28 4.55871 27.6839 5.12132 27.1213C5.68393 26.5587 6 25.7956 6 25ZM13.48 3.788C12.8867 3.788 12.3066 3.96395 11.8133 4.29359C11.3199 4.62324 10.9354 5.09177 10.7084 5.63995C10.4813 6.18813 10.4219 6.79133 10.5376 7.37327C10.6534 7.95521 10.9391 8.48976 11.3587 8.90932C11.7782 9.32888 12.3128 9.6146 12.8947 9.73036C13.4767 9.84611 14.0799 9.7867 14.6281 9.55964C15.1762 9.33258 15.6448 8.94806 15.9744 8.45471C16.3041 7.96136 16.48 7.38134 16.48 6.788C16.48 5.99235 16.1639 5.22929 15.6013 4.66668C15.0387 4.10407 14.2756 3.788 13.48 3.788ZM5.826 11.5C5.23266 11.5 4.65264 11.6759 4.15929 12.0056C3.66594 12.3352 3.28143 12.8038 3.05436 13.3519C2.8273 13.9001 2.76789 14.5033 2.88365 15.0853C2.9994 15.6672 3.28512 16.2018 3.70468 16.6213C4.12424 17.0409 4.65879 17.3266 5.24073 17.4424C5.82267 17.5581 6.42587 17.4987 6.97405 17.2716C7.52223 17.0446 7.99077 16.6601 8.32041 16.1667C8.65005 15.6734 8.826 15.0933 8.826 14.5C8.826 13.7044 8.50993 12.9413 7.94732 12.3787C7.38471 11.8161 6.62165 11.5 5.826 11.5ZM13.48 40.212C12.8867 40.212 12.3066 40.3879 11.8133 40.7176C11.3199 41.0472 10.9354 41.5158 10.7084 42.0639C10.4813 42.6121 10.4219 43.2153 10.5376 43.7973C10.6534 44.3792 10.9391 44.9138 11.3587 45.3333C11.7782 45.7529 12.3128 46.0386 12.8947 46.1544C13.4767 46.2701 14.0799 46.2107 14.6281 45.9836C15.1762 45.7566 15.6448 45.3721 15.9744 44.8787C16.3041 44.3854 16.48 43.8053 16.48 43.212C16.48 42.4164 16.1639 41.6533 15.6013 41.0907C15.0387 40.5281 14.2756 40.212 13.48 40.212ZM5.826 32.5C5.23266 32.5 4.65264 32.6759 4.15929 33.0056C3.66594 33.3352 3.28143 33.8038 3.05436 34.352C2.8273 34.9001 2.76789 35.5033 2.88365 36.0853C2.9994 36.6672 3.28512 37.2018 3.70468 37.6213C4.12424 38.0409 4.65879 38.3266 5.24073 38.4424C5.82267 38.5581 6.42587 38.4987 6.97405 38.2716C7.52223 38.0446 7.99077 37.6601 8.32041 37.1667C8.65005 36.6734 8.826 36.0933 8.826 35.5C8.826 34.7044 8.50993 33.9413 7.94732 33.3787C7.38471 32.8161 6.62165 32.5 5.826 32.5ZM24 42C23.4067 42 22.8266 42.1759 22.3333 42.5056C21.8399 42.8352 21.4554 43.3038 21.2284 43.852C21.0013 44.4001 20.9419 45.0033 21.0576 45.5853C21.1734 46.1672 21.4591 46.7018 21.8787 47.1213C22.2982 47.5409 22.8328 47.8266 23.4147 47.9424C23.9967 48.0581 24.5999 47.9987 25.1481 47.7716C25.6962 47.5446 26.1648 47.1601 26.4944 46.6667C26.8241 46.1734 27 45.5933 27 45C27 44.2044 26.6839 43.4413 26.1213 42.8787C25.5587 42.3161 24.7957 42 24 42ZM42.212 31.52C41.6187 31.52 41.0386 31.6959 40.5453 32.0256C40.0519 32.3552 39.6674 32.8238 39.4404 33.3719C39.2133 33.9201 39.1539 34.5233 39.2696 35.1053C39.3854 35.6872 39.6711 36.2218 40.0907 36.6413C40.5102 37.0609 41.0448 37.3466 41.6267 37.4624C42.2087 37.5781 42.8119 37.5187 43.3601 37.2916C43.9082 37.0646 44.3768 36.6801 44.7064 36.1867C45.0361 35.6934 45.212 35.1133 45.212 34.52C45.212 33.7244 44.8959 32.9613 44.3333 32.3987C43.7707 31.8361 43.0077 31.52 42.212 31.52ZM34.5 39.174C33.9067 39.174 33.3266 39.3499 32.8333 39.6796C32.3399 40.0092 31.9554 40.4778 31.7284 41.026C31.5013 41.5741 31.4419 42.1773 31.5576 42.7593C31.6734 43.3412 31.9591 43.8758 32.3787 44.2953C32.7982 44.7149 33.3328 45.0006 33.9147 45.1164C34.4967 45.2321 35.0999 45.1727 35.648 44.9456C36.1962 44.7186 36.6648 44.3341 36.9944 43.8407C37.3241 43.3474 37.5 42.7673 37.5 42.174C37.5 41.3784 37.1839 40.6153 36.6213 40.0527C36.0587 39.4901 35.2956 39.174 34.5 39.174Z" fill="#314580"/>
</svg>
